<?xml version="1.0" encoding="UTF-8" standalone="no" ?>
<!DOCTYPE svg PUBLIC "-//W3C//DTD SVG 1.1//EN" "http://www.w3.org/Graphics/SVG/1.1/DTD/svg11.dtd">
<svg width="181mm" xmlns="http://www.w3.org/2000/svg" height="165mm" version="1.1" viewBox="0 0 687 626" xmlns:xlink="http://www.w3.org/1999/xlink">
   <polyline fill="none" points="639,41 639,171 639,171 639,218" stroke="#0080c0" stroke-width="1"/>
   <polygon fill="#0080c0" points="639,197 636,184 642,184" stroke="#0080c0" stroke-width="1" stroke-linejoin="miter"/>
   <polyline fill="none" points="589,449 272,449 272,538 214,538" stroke="#0080c0" stroke-width="1"/>
   <polygon fill="#0080c0" points="214,538 228,535 228,541" stroke="#0080c0" stroke-width="1" stroke-linejoin="miter"/>
   <polyline fill="none" points="493,474 493,508 323,508 323,575" stroke="#0080c0" stroke-width="1"/>
   <polygon fill="#0080c0" points="323,539 320,526 326,526" stroke="#0080c0" stroke-width="1" stroke-linejoin="miter"/>
   <polyline fill="none" points="193,373 193,477 193,477 193,540" stroke="#0080c0" stroke-width="1"/>
   <polygon fill="#0080c0" points="193,501 190,488 196,488" stroke="#0080c0" stroke-width="1" stroke-linejoin="miter"/>
   <polyline fill="none" points="353,376 14,376" stroke="#0080c0" stroke-width="1"/>
   <polygon fill="#0080c0" points="220,376 233,373 233,379" stroke="#0080c0" stroke-width="1" stroke-linejoin="miter"/>
   <polyline fill="none" points="83,217 83,45" stroke="#0080c0" stroke-width="1"/>
   <polygon fill="#0080c0" points="83,131 86,144 80,144" stroke="#0080c0" stroke-width="1" stroke-linejoin="miter"/>
   <polyline fill="none" points="237,27 289,27 289,235" stroke="#0080c0" stroke-width="1"/>
   <polygon fill="#0080c0" points="289,210 286,197 292,197" stroke="#0080c0" stroke-width="1" stroke-linejoin="miter"/>
   <polyline fill="none" points="253,285 339,285 339,232" stroke="#0080c0" stroke-width="1"/>
   <polygon fill="#0080c0" points="339,263 342,277 336,277" stroke="#0080c0" stroke-width="1" stroke-linejoin="miter"/>
   <polyline fill="none" points="460,62 437,62 437,231" stroke="#0080c0" stroke-width="1"/>
   <polygon fill="#0080c0" points="437,210 434,197 440,197" stroke="#0080c0" stroke-width="1" stroke-linejoin="miter"/>
   <rect x="2" y="168" fill="#ffffff" width="0" height="0" stroke="none" stroke-width="0"/>
   <defs>
      <linearGradient id="Gradient1" x1="0%" x2="100%" y1="0%" y2="100%" gradientUnits="objectBoundingBox">
         <stop offset="5%" stop-color="#ffffff"/>
         <stop offset="95%" stop-color="#b2d6fc"/>
      </linearGradient>
   </defs>
   <rect x="2" y="168" fill="url(#Gradient1)" width="252" height="129" stroke="#0080c0" stroke-width="1"/>
   <text x="128" y="178" fill="#000000" font-size="10" font-family="新宋体" text-anchor="middle">WarrantyCards</text>
   <line x1="2" x2="254" y1="183" y2="183" stroke="#0080c0" stroke-width="1"/>
   <text x="7" y="193" fill="#000000" font-size="10" font-family="新宋体" text-decoration="underline">WarrantyCardId</text>
   <text x="7" y="204" fill="#000000" font-size="10" font-family="新宋体">WarrantyOwnerId</text>
   <text x="7" y="215" fill="#000000" font-size="10" font-family="新宋体">EAN</text>
   <text x="7" y="226" fill="#000000" font-size="10" font-family="新宋体">TransationId</text>
   <text x="7" y="237" fill="#000000" font-size="10" font-family="新宋体">CountryId</text>
   <text x="7" y="248" fill="#000000" font-size="10" font-family="新宋体">PurchaseSource</text>
   <text x="7" y="259" fill="#000000" font-size="10" font-family="新宋体">PurchaseDate</text>
   <text x="7" y="270" fill="#000000" font-size="10" font-family="新宋体">RegisterationSource</text>
   <text x="7" y="281" fill="#000000" font-size="10" font-family="新宋体">CreationDate</text>
   <text x="7" y="292" fill="#000000" font-size="10" font-family="新宋体">Enable</text>
   <text x="7" y="302" fill="#000000" font-size="10" font-family="新宋体">...</text>
   <text x="110" y="193" fill="#000000" font-size="10" font-family="新宋体" text-decoration="underline">bigint</text>
   <text x="110" y="204" fill="#000000" font-size="10" font-family="新宋体">int</text>
   <text x="110" y="215" fill="#000000" font-size="10" font-family="新宋体">varchar(50)</text>
   <text x="110" y="226" fill="#000000" font-size="10" font-family="新宋体">varchar(50)</text>
   <text x="110" y="237" fill="#000000" font-size="10" font-family="新宋体">int</text>
   <text x="110" y="248" fill="#000000" font-size="10" font-family="新宋体">varchar(50)</text>
   <text x="110" y="259" fill="#000000" font-size="10" font-family="新宋体">datetime</text>
   <text x="110" y="270" fill="#000000" font-size="10" font-family="新宋体">varchar(50)</text>
   <text x="110" y="281" fill="#000000" font-size="10" font-family="新宋体">datetime</text>
   <text x="110" y="292" fill="#000000" font-size="10" font-family="新宋体">bit</text>
   <text x="173" y="193" fill="#000000" font-size="10" font-family="新宋体" text-decoration="underline">&lt;pk&gt;</text>
   <text x="173" y="204" fill="#000000" font-size="10" font-family="新宋体">&lt;fk1&gt;</text>
   <text x="173" y="237" fill="#000000" font-size="10" font-family="新宋体">&lt;fk2&gt;</text>
   <text x="206" y="193" fill="#000000" font-size="10" font-family="新宋体" text-decoration="underline">not null</text>
   <text x="206" y="204" fill="#000000" font-size="10" font-family="新宋体">not null</text>
   <text x="206" y="215" fill="#000000" font-size="10" font-family="新宋体">not null</text>
   <text x="206" y="226" fill="#000000" font-size="10" font-family="新宋体">null</text>
   <text x="206" y="237" fill="#000000" font-size="10" font-family="新宋体">not null</text>
   <text x="206" y="248" fill="#000000" font-size="10" font-family="新宋体">null</text>
   <text x="206" y="259" fill="#000000" font-size="10" font-family="新宋体">not null</text>
   <text x="206" y="270" fill="#000000" font-size="10" font-family="新宋体">not null</text>
   <text x="206" y="281" fill="#000000" font-size="10" font-family="新宋体">not null</text>
   <text x="206" y="292" fill="#000000" font-size="10" font-family="新宋体">not null</text>
   <rect x="467" y="197" fill="#ffffff" width="0" height="0" stroke="none" stroke-width="0"/>
   <defs>
      <linearGradient id="Gradient2" x1="0%" x2="100%" y1="0%" y2="100%" gradientUnits="objectBoundingBox">
         <stop offset="5%" stop-color="#ffffff"/>
         <stop offset="95%" stop-color="#b2d6fc"/>
      </linearGradient>
   </defs>
   <rect x="467" y="197" fill="url(#Gradient2)" width="211" height="96" stroke="#0080c0" stroke-width="1"/>
   <text x="572" y="207" fill="#000000" font-size="10" font-family="新宋体" text-anchor="middle">Products</text>
   <line x1="467" x2="678" y1="212" y2="212" stroke="#0080c0" stroke-width="1"/>
   <text x="472" y="222" fill="#000000" font-size="10" font-family="新宋体" text-decoration="underline">ProductId</text>
   <text x="472" y="233" fill="#000000" font-size="10" font-family="新宋体">EAN</text>
   <text x="472" y="244" fill="#000000" font-size="10" font-family="新宋体">Sku</text>
   <text x="472" y="255" fill="#000000" font-size="10" font-family="新宋体">Materials</text>
   <text x="472" y="266" fill="#000000" font-size="10" font-family="新宋体">Grid</text>
   <text x="472" y="277" fill="#000000" font-size="10" font-family="新宋体">CreationDate</text>
   <text x="472" y="288" fill="#000000" font-size="10" font-family="新宋体">Enable</text>
   <text x="472" y="298" fill="#000000" font-size="10" font-family="新宋体">...</text>
   <text x="540" y="222" fill="#000000" font-size="10" font-family="新宋体" text-decoration="underline">bigint</text>
   <text x="540" y="233" fill="#000000" font-size="10" font-family="新宋体">varchar(50)</text>
   <text x="540" y="244" fill="#000000" font-size="10" font-family="新宋体">varchar(50)</text>
   <text x="540" y="255" fill="#000000" font-size="10" font-family="新宋体">varchar(50)</text>
   <text x="540" y="266" fill="#000000" font-size="10" font-family="新宋体">varchar(50)</text>
   <text x="540" y="277" fill="#000000" font-size="10" font-family="新宋体">datetime</text>
   <text x="540" y="288" fill="#000000" font-size="10" font-family="新宋体">bit</text>
   <text x="603" y="222" fill="#000000" font-size="10" font-family="新宋体" text-decoration="underline">&lt;pk&gt;</text>
   <text x="631" y="222" fill="#000000" font-size="10" font-family="新宋体" text-decoration="underline">not null</text>
   <text x="631" y="233" fill="#000000" font-size="10" font-family="新宋体">not null</text>
   <text x="631" y="244" fill="#000000" font-size="10" font-family="新宋体">not null</text>
   <text x="631" y="255" fill="#000000" font-size="10" font-family="新宋体">null</text>
   <text x="631" y="266" fill="#000000" font-size="10" font-family="新宋体">null</text>
   <text x="631" y="277" fill="#000000" font-size="10" font-family="新宋体">not null</text>
   <text x="631" y="288" fill="#000000" font-size="10" font-family="新宋体">not null</text>
   <rect x="459" y="6" fill="#ffffff" width="0" height="0" stroke="none" stroke-width="0"/>
   <defs>
      <linearGradient id="Gradient3" x1="0%" x2="100%" y1="0%" y2="100%" gradientUnits="objectBoundingBox">
         <stop offset="5%" stop-color="#ffffff"/>
         <stop offset="95%" stop-color="#b2d6fc"/>
      </linearGradient>
   </defs>
   <rect x="459" y="6" fill="url(#Gradient3)" width="226" height="96" stroke="#0080c0" stroke-width="1"/>
   <text x="572" y="16" fill="#000000" font-size="10" font-family="新宋体" text-anchor="middle">ProductWarranty</text>
   <line x1="459" x2="685" y1="21" y2="21" stroke="#0080c0" stroke-width="1"/>
   <text x="463" y="31" fill="#000000" font-size="10" font-family="新宋体" text-decoration="underline">ProductWarrantyId</text>
   <text x="463" y="42" fill="#000000" font-size="10" font-family="新宋体">ProductId</text>
   <text x="463" y="53" fill="#000000" font-size="10" font-family="新宋体">WarrantyYear</text>
   <text x="463" y="64" fill="#000000" font-size="10" font-family="新宋体">CountryId</text>
   <text x="463" y="75" fill="#000000" font-size="10" font-family="新宋体">InitialDate</text>
   <text x="463" y="86" fill="#000000" font-size="10" font-family="新宋体">CreationDate</text>
   <text x="463" y="97" fill="#000000" font-size="10" font-family="新宋体">Enable</text>
   <text x="463" y="107" fill="#000000" font-size="10" font-family="新宋体">...</text>
   <text x="556" y="31" fill="#000000" font-size="10" font-family="新宋体" text-decoration="underline">bigint</text>
   <text x="556" y="42" fill="#000000" font-size="10" font-family="新宋体">bigint</text>
   <text x="556" y="53" fill="#000000" font-size="10" font-family="新宋体">int</text>
   <text x="556" y="64" fill="#000000" font-size="10" font-family="新宋体">int</text>
   <text x="556" y="75" fill="#000000" font-size="10" font-family="新宋体">datetime</text>
   <text x="556" y="86" fill="#000000" font-size="10" font-family="新宋体">datetime</text>
   <text x="556" y="97" fill="#000000" font-size="10" font-family="新宋体">bit</text>
   <text x="604" y="31" fill="#000000" font-size="10" font-family="新宋体" text-decoration="underline">&lt;pk&gt;</text>
   <text x="604" y="42" fill="#000000" font-size="10" font-family="新宋体">&lt;fk1&gt;</text>
   <text x="604" y="64" fill="#000000" font-size="10" font-family="新宋体">&lt;fk2&gt;</text>
   <text x="637" y="31" fill="#000000" font-size="10" font-family="新宋体" text-decoration="underline">not null</text>
   <text x="637" y="42" fill="#000000" font-size="10" font-family="新宋体">not null</text>
   <text x="637" y="53" fill="#000000" font-size="10" font-family="新宋体">not null</text>
   <text x="637" y="64" fill="#000000" font-size="10" font-family="新宋体">not null</text>
   <text x="637" y="75" fill="#000000" font-size="10" font-family="新宋体">not null</text>
   <text x="637" y="86" fill="#000000" font-size="10" font-family="新宋体">not null</text>
   <text x="637" y="97" fill="#000000" font-size="10" font-family="新宋体">not null</text>
   <rect x="4" y="336" fill="#ffffff" width="0" height="0" stroke="none" stroke-width="0"/>
   <defs>
      <linearGradient id="Gradient4" x1="0%" x2="100%" y1="0%" y2="100%" gradientUnits="objectBoundingBox">
         <stop offset="5%" stop-color="#ffffff"/>
         <stop offset="95%" stop-color="#b2d6fc"/>
      </linearGradient>
   </defs>
   <rect x="4" y="336" fill="url(#Gradient4)" width="216" height="118" stroke="#0080c0" stroke-width="1"/>
   <text x="112" y="346" fill="#000000" font-size="10" font-family="新宋体" text-anchor="middle">Users</text>
   <line x1="4" x2="220" y1="351" y2="351" stroke="#0080c0" stroke-width="1"/>
   <text x="9" y="361" fill="#000000" font-size="10" font-family="新宋体" text-decoration="underline">UserId</text>
   <text x="9" y="372" fill="#000000" font-size="10" font-family="新宋体">Name</text>
   <text x="9" y="383" fill="#000000" font-size="10" font-family="新宋体">Store</text>
   <text x="9" y="394" fill="#000000" font-size="10" font-family="新宋体">Account</text>
   <text x="9" y="405" fill="#000000" font-size="10" font-family="新宋体">Password</text>
   <text x="9" y="416" fill="#000000" font-size="10" font-family="新宋体">Salt</text>
   <text x="9" y="427" fill="#000000" font-size="10" font-family="新宋体">RoleId</text>
   <text x="9" y="438" fill="#000000" font-size="10" font-family="新宋体">CreationDate</text>
   <text x="9" y="449" fill="#000000" font-size="10" font-family="新宋体">Enable</text>
   <text x="9" y="459" fill="#000000" font-size="10" font-family="新宋体">...</text>
   <text x="77" y="361" fill="#000000" font-size="10" font-family="新宋体" text-decoration="underline">int</text>
   <text x="77" y="372" fill="#000000" font-size="10" font-family="新宋体">varchar(50)</text>
   <text x="77" y="383" fill="#000000" font-size="10" font-family="新宋体">varchar(50</text>
   <text x="77" y="394" fill="#000000" font-size="10" font-family="新宋体">varchar(50)</text>
   <text x="77" y="405" fill="#000000" font-size="10" font-family="新宋体">varchar(200)</text>
   <text x="77" y="416" fill="#000000" font-size="10" font-family="新宋体">varchar(200)</text>
   <text x="77" y="427" fill="#000000" font-size="10" font-family="新宋体">int</text>
   <text x="77" y="438" fill="#000000" font-size="10" font-family="新宋体">datetime</text>
   <text x="77" y="449" fill="#000000" font-size="10" font-family="新宋体">bit</text>
   <text x="145" y="361" fill="#000000" font-size="10" font-family="新宋体" text-decoration="underline">&lt;pk&gt;</text>
   <text x="145" y="427" fill="#000000" font-size="10" font-family="新宋体">&lt;fk&gt;</text>
   <text x="173" y="361" fill="#000000" font-size="10" font-family="新宋体" text-decoration="underline">not null</text>
   <text x="173" y="372" fill="#000000" font-size="10" font-family="新宋体">not null</text>
   <text x="173" y="383" fill="#000000" font-size="10" font-family="新宋体">null</text>
   <text x="173" y="394" fill="#000000" font-size="10" font-family="新宋体">not null</text>
   <text x="173" y="405" fill="#000000" font-size="10" font-family="新宋体">not null</text>
   <text x="173" y="416" fill="#000000" font-size="10" font-family="新宋体">not null</text>
   <text x="173" y="427" fill="#000000" font-size="10" font-family="新宋体">not null</text>
   <text x="173" y="438" fill="#000000" font-size="10" font-family="新宋体">not null</text>
   <text x="173" y="449" fill="#000000" font-size="10" font-family="新宋体">not null</text>
   <rect x="4" y="501" fill="#ffffff" width="0" height="0" stroke="none" stroke-width="0"/>
   <defs>
      <linearGradient id="Gradient5" x1="0%" x2="100%" y1="0%" y2="100%" gradientUnits="objectBoundingBox">
         <stop offset="5%" stop-color="#ffffff"/>
         <stop offset="95%" stop-color="#b2d6fc"/>
      </linearGradient>
   </defs>
   <rect x="4" y="501" fill="url(#Gradient5)" width="210" height="74" stroke="#0080c0" stroke-width="1"/>
   <text x="109" y="511" fill="#000000" font-size="10" font-family="新宋体" text-anchor="middle">Roles</text>
   <line x1="4" x2="214" y1="516" y2="516" stroke="#0080c0" stroke-width="1"/>
   <text x="8" y="526" fill="#000000" font-size="10" font-family="新宋体" text-decoration="underline">RoleId</text>
   <text x="8" y="537" fill="#000000" font-size="10" font-family="新宋体">Name</text>
   <text x="8" y="548" fill="#000000" font-size="10" font-family="新宋体">CreationDate</text>
   <text x="8" y="559" fill="#000000" font-size="10" font-family="新宋体">UpdationDate</text>
   <text x="8" y="570" fill="#000000" font-size="10" font-family="新宋体">Enable</text>
   <text x="8" y="580" fill="#000000" font-size="10" font-family="新宋体">...</text>
   <text x="76" y="526" fill="#000000" font-size="10" font-family="新宋体" text-decoration="underline">int</text>
   <text x="76" y="537" fill="#000000" font-size="10" font-family="新宋体">varchar(50)</text>
   <text x="76" y="548" fill="#000000" font-size="10" font-family="新宋体">datetime</text>
   <text x="76" y="559" fill="#000000" font-size="10" font-family="新宋体">datetime</text>
   <text x="76" y="570" fill="#000000" font-size="10" font-family="新宋体">bit</text>
   <text x="139" y="526" fill="#000000" font-size="10" font-family="新宋体" text-decoration="underline">&lt;pk&gt;</text>
   <text x="167" y="526" fill="#000000" font-size="10" font-family="新宋体" text-decoration="underline">not null</text>
   <text x="167" y="537" fill="#000000" font-size="10" font-family="新宋体">not null</text>
   <text x="167" y="548" fill="#000000" font-size="10" font-family="新宋体">not null</text>
   <text x="167" y="559" fill="#000000" font-size="10" font-family="新宋体">null</text>
   <text x="167" y="570" fill="#000000" font-size="10" font-family="新宋体">not null</text>
   <rect x="311" y="539" fill="#ffffff" width="0" height="0" stroke="none" stroke-width="0"/>
   <defs>
      <linearGradient id="Gradient6" x1="0%" x2="100%" y1="0%" y2="100%" gradientUnits="objectBoundingBox">
         <stop offset="5%" stop-color="#ffffff"/>
         <stop offset="95%" stop-color="#b2d6fc"/>
      </linearGradient>
   </defs>
   <rect x="311" y="539" fill="url(#Gradient6)" width="210" height="85" stroke="#0080c0" stroke-width="1"/>
   <text x="416" y="549" fill="#000000" font-size="10" font-family="新宋体" text-anchor="middle">Permissions</text>
   <line x1="311" x2="521" y1="554" y2="554" stroke="#0080c0" stroke-width="1"/>
   <text x="315" y="564" fill="#000000" font-size="10" font-family="新宋体" text-decoration="underline">PermissionId</text>
   <text x="315" y="575" fill="#000000" font-size="10" font-family="新宋体">Name</text>
   <text x="315" y="586" fill="#000000" font-size="10" font-family="新宋体">Action</text>
   <text x="315" y="597" fill="#000000" font-size="10" font-family="新宋体">CreationDate</text>
   <text x="315" y="608" fill="#000000" font-size="10" font-family="新宋体">UpdationDate</text>
   <text x="315" y="619" fill="#000000" font-size="10" font-family="新宋体">Enable</text>
   <text x="315" y="629" fill="#000000" font-size="10" font-family="新宋体">...</text>
   <text x="383" y="564" fill="#000000" font-size="10" font-family="新宋体" text-decoration="underline">int</text>
   <text x="383" y="575" fill="#000000" font-size="10" font-family="新宋体">varchar(50)</text>
   <text x="383" y="586" fill="#000000" font-size="10" font-family="新宋体">varchar(50)</text>
   <text x="383" y="597" fill="#000000" font-size="10" font-family="新宋体">datetime</text>
   <text x="383" y="608" fill="#000000" font-size="10" font-family="新宋体">datetime</text>
   <text x="383" y="619" fill="#000000" font-size="10" font-family="新宋体">bit</text>
   <text x="446" y="564" fill="#000000" font-size="10" font-family="新宋体" text-decoration="underline">&lt;pk&gt;</text>
   <text x="474" y="564" fill="#000000" font-size="10" font-family="新宋体" text-decoration="underline">not null</text>
   <text x="474" y="575" fill="#000000" font-size="10" font-family="新宋体">not null</text>
   <text x="474" y="586" fill="#000000" font-size="10" font-family="新宋体">not null</text>
   <text x="474" y="597" fill="#000000" font-size="10" font-family="新宋体">not null</text>
   <text x="474" y="608" fill="#000000" font-size="10" font-family="新宋体">null</text>
   <text x="474" y="619" fill="#000000" font-size="10" font-family="新宋体">not null</text>
   <rect x="380" y="413" fill="#ffffff" width="0" height="0" stroke="none" stroke-width="0"/>
   <defs>
      <linearGradient id="Gradient7" x1="0%" x2="100%" y1="0%" y2="100%" gradientUnits="objectBoundingBox">
         <stop offset="5%" stop-color="#ffffff"/>
         <stop offset="95%" stop-color="#b2d6fc"/>
      </linearGradient>
   </defs>
   <rect x="380" y="413" fill="url(#Gradient7)" width="220" height="74" stroke="#0080c0" stroke-width="1"/>
   <text x="490" y="423" fill="#000000" font-size="10" font-family="新宋体" text-anchor="middle">RolePermission</text>
   <line x1="380" x2="600" y1="428" y2="428" stroke="#0080c0" stroke-width="1"/>
   <text x="384" y="438" fill="#000000" font-size="10" font-family="新宋体" text-decoration="underline">RolePermissionId</text>
   <text x="384" y="449" fill="#000000" font-size="10" font-family="新宋体">RoleId</text>
   <text x="384" y="460" fill="#000000" font-size="10" font-family="新宋体">PermissionId</text>
   <text x="384" y="471" fill="#000000" font-size="10" font-family="新宋体">Enable</text>
   <text x="384" y="482" fill="#000000" font-size="10" font-family="新宋体">CreationDate</text>
   <text x="384" y="492" fill="#000000" font-size="10" font-family="新宋体">...</text>
   <text x="472" y="438" fill="#000000" font-size="10" font-family="新宋体" text-decoration="underline">int</text>
   <text x="472" y="449" fill="#000000" font-size="10" font-family="新宋体">int</text>
   <text x="472" y="460" fill="#000000" font-size="10" font-family="新宋体">int</text>
   <text x="472" y="471" fill="#000000" font-size="10" font-family="新宋体">bit</text>
   <text x="472" y="482" fill="#000000" font-size="10" font-family="新宋体">datetime</text>
   <text x="520" y="438" fill="#000000" font-size="10" font-family="新宋体" text-decoration="underline">&lt;pk&gt;</text>
   <text x="520" y="449" fill="#000000" font-size="10" font-family="新宋体">&lt;fk1&gt;</text>
   <text x="520" y="460" fill="#000000" font-size="10" font-family="新宋体">&lt;fk2&gt;</text>
   <text x="553" y="438" fill="#000000" font-size="10" font-family="新宋体" text-decoration="underline">not null</text>
   <text x="553" y="449" fill="#000000" font-size="10" font-family="新宋体">not null</text>
   <text x="553" y="460" fill="#000000" font-size="10" font-family="新宋体">not null</text>
   <text x="553" y="471" fill="#000000" font-size="10" font-family="新宋体">not null</text>
   <text x="553" y="482" fill="#000000" font-size="10" font-family="新宋体">not null</text>
   <rect x="346" y="333" fill="#ffffff" width="0" height="0" stroke="none" stroke-width="0"/>
   <defs>
      <linearGradient id="Gradient8" x1="0%" x2="100%" y1="0%" y2="100%" gradientUnits="objectBoundingBox">
         <stop offset="5%" stop-color="#ffffff"/>
         <stop offset="95%" stop-color="#b2d6fc"/>
      </linearGradient>
   </defs>
   <rect x="346" y="333" fill="url(#Gradient8)" width="210" height="63" stroke="#0080c0" stroke-width="1"/>
   <text x="451" y="343" fill="#000000" font-size="10" font-family="新宋体" text-anchor="middle">SearchHistory</text>
   <line x1="346" x2="556" y1="348" y2="348" stroke="#0080c0" stroke-width="1"/>
   <text x="350" y="358" fill="#000000" font-size="10" font-family="新宋体" text-decoration="underline">Id</text>
   <text x="350" y="369" fill="#000000" font-size="10" font-family="新宋体">UserId</text>
   <text x="350" y="380" fill="#000000" font-size="10" font-family="新宋体">Keyword</text>
   <text x="350" y="391" fill="#000000" font-size="10" font-family="新宋体">CreationDate</text>
   <text x="350" y="401" fill="#000000" font-size="10" font-family="新宋体">...</text>
   <text x="418" y="358" fill="#000000" font-size="10" font-family="新宋体" text-decoration="underline">bigint</text>
   <text x="418" y="369" fill="#000000" font-size="10" font-family="新宋体">int</text>
   <text x="418" y="380" fill="#000000" font-size="10" font-family="新宋体">varchar(50)</text>
   <text x="418" y="391" fill="#000000" font-size="10" font-family="新宋体">datetime</text>
   <text x="481" y="358" fill="#000000" font-size="10" font-family="新宋体" text-decoration="underline">&lt;pk&gt;</text>
   <text x="481" y="369" fill="#000000" font-size="10" font-family="新宋体">&lt;fk&gt;</text>
   <text x="509" y="358" fill="#000000" font-size="10" font-family="新宋体" text-decoration="underline">not null</text>
   <text x="509" y="369" fill="#000000" font-size="10" font-family="新宋体">not null</text>
   <text x="509" y="380" fill="#000000" font-size="10" font-family="新宋体">not null</text>
   <text x="509" y="391" fill="#000000" font-size="10" font-family="新宋体">not null</text>
   <rect x="2" y="2" fill="#ffffff" width="0" height="0" stroke="none" stroke-width="0"/>
   <defs>
      <linearGradient id="Gradient9" x1="0%" x2="100%" y1="0%" y2="100%" gradientUnits="objectBoundingBox">
         <stop offset="5%" stop-color="#ffffff"/>
         <stop offset="95%" stop-color="#b2d6fc"/>
      </linearGradient>
   </defs>
   <rect x="2" y="2" fill="url(#Gradient9)" width="236" height="129" stroke="#0080c0" stroke-width="1"/>
   <text x="120" y="12" fill="#000000" font-size="10" font-family="新宋体" text-anchor="middle">WarrantyOwners</text>
   <line x1="2" x2="238" y1="17" y2="17" stroke="#0080c0" stroke-width="1"/>
   <text x="7" y="27" fill="#000000" font-size="10" font-family="新宋体" text-decoration="underline">WarrantyOwnerId</text>
   <text x="7" y="38" fill="#000000" font-size="10" font-family="新宋体">FirstName</text>
   <text x="7" y="49" fill="#000000" font-size="10" font-family="新宋体">LastName</text>
   <text x="7" y="60" fill="#000000" font-size="10" font-family="新宋体">Gender</text>
   <text x="7" y="71" fill="#000000" font-size="10" font-family="新宋体">CountryId</text>
   <text x="7" y="82" fill="#000000" font-size="10" font-family="新宋体">Address</text>
   <text x="7" y="93" fill="#000000" font-size="10" font-family="新宋体">Email</text>
   <text x="7" y="104" fill="#000000" font-size="10" font-family="新宋体">Phone</text>
   <text x="7" y="115" fill="#000000" font-size="10" font-family="新宋体">CreationDate</text>
   <text x="7" y="126" fill="#000000" font-size="10" font-family="新宋体">Enable</text>
   <text x="7" y="136" fill="#000000" font-size="10" font-family="新宋体">...</text>
   <text x="90" y="27" fill="#000000" font-size="10" font-family="新宋体" text-decoration="underline">int</text>
   <text x="90" y="38" fill="#000000" font-size="10" font-family="新宋体">varchar(50)</text>
   <text x="90" y="49" fill="#000000" font-size="10" font-family="新宋体">varchar(50)</text>
   <text x="90" y="60" fill="#000000" font-size="10" font-family="新宋体">smallint</text>
   <text x="90" y="71" fill="#000000" font-size="10" font-family="新宋体">int</text>
   <text x="90" y="82" fill="#000000" font-size="10" font-family="新宋体">nvarchar(256)</text>
   <text x="90" y="93" fill="#000000" font-size="10" font-family="新宋体">varchar(50)</text>
   <text x="90" y="104" fill="#000000" font-size="10" font-family="新宋体">varchar(20)</text>
   <text x="90" y="115" fill="#000000" font-size="10" font-family="新宋体">datetime</text>
   <text x="90" y="126" fill="#000000" font-size="10" font-family="新宋体">bit</text>
   <text x="163" y="27" fill="#000000" font-size="10" font-family="新宋体" text-decoration="underline">&lt;pk&gt;</text>
   <text x="163" y="71" fill="#000000" font-size="10" font-family="新宋体">&lt;fk&gt;</text>
   <text x="191" y="27" fill="#000000" font-size="10" font-family="新宋体" text-decoration="underline">not null</text>
   <text x="191" y="38" fill="#000000" font-size="10" font-family="新宋体">not null</text>
   <text x="191" y="49" fill="#000000" font-size="10" font-family="新宋体">not null</text>
   <text x="191" y="60" fill="#000000" font-size="10" font-family="新宋体">not null</text>
   <text x="191" y="71" fill="#000000" font-size="10" font-family="新宋体">null</text>
   <text x="191" y="82" fill="#000000" font-size="10" font-family="新宋体">null</text>
   <text x="191" y="93" fill="#000000" font-size="10" font-family="新宋体">not null</text>
   <text x="191" y="104" fill="#000000" font-size="10" font-family="新宋体">not null</text>
   <text x="191" y="115" fill="#000000" font-size="10" font-family="新宋体">not null</text>
   <text x="191" y="126" fill="#000000" font-size="10" font-family="新宋体">not null</text>
   <rect x="265" y="210" fill="#ffffff" width="0" height="0" stroke="none" stroke-width="0"/>
   <defs>
      <linearGradient id="Gradient10" x1="0%" x2="100%" y1="0%" y2="100%" gradientUnits="objectBoundingBox">
         <stop offset="5%" stop-color="#ffffff"/>
         <stop offset="95%" stop-color="#b2d6fc"/>
      </linearGradient>
   </defs>
   <rect x="265" y="210" fill="url(#Gradient10)" width="200" height="53" stroke="#0080c0" stroke-width="1"/>
   <text x="365" y="220" fill="#000000" font-size="10" font-family="新宋体" text-anchor="middle">Country</text>
   <line x1="265" x2="465" y1="225" y2="225" stroke="#0080c0" stroke-width="1"/>
   <text x="270" y="235" fill="#000000" font-size="10" font-family="新宋体" text-decoration="underline">CountryId</text>
   <text x="270" y="246" fill="#000000" font-size="10" font-family="新宋体">Name</text>
   <text x="323" y="235" fill="#000000" font-size="10" font-family="新宋体" text-decoration="underline">int</text>
   <text x="323" y="246" fill="#000000" font-size="10" font-family="新宋体">varchar(100)</text>
   <text x="391" y="235" fill="#000000" font-size="10" font-family="新宋体" text-decoration="underline">&lt;pk&gt;</text>
   <text x="419" y="235" fill="#000000" font-size="10" font-family="新宋体" text-decoration="underline">not null</text>
   <text x="419" y="246" fill="#000000" font-size="10" font-family="新宋体">not null</text>
   <rect x="321" y="49" fill="#ffffff" width="0" height="0" stroke="none" stroke-width="0"/>
   <defs>
      <linearGradient id="Gradient11" x1="0%" x2="100%" y1="0%" y2="100%" gradientUnits="objectBoundingBox">
         <stop offset="5%" stop-color="#ffffff"/>
         <stop offset="95%" stop-color="#b2d6fc"/>
      </linearGradient>
   </defs>
   <rect x="321" y="49" fill="url(#Gradient11)" width="64" height="53" stroke="#0080c0" stroke-width="1"/>
   <text x="353" y="59" fill="#000000" font-size="10" font-family="新宋体" text-anchor="middle">Source</text>
   <line x1="321" x2="385" y1="64" y2="64" stroke="#0080c0" stroke-width="1"/>
</svg>
